<svg width="165" height="30" viewBox="0 0 165 30" fill="none" xmlns="http://www.w3.org/2000/svg">
<g clip-path="url(#clip0_4608_1213)">
<path d="M120.664 15.9109C120.664 14.6333 120.072 13.8288 118.889 13.8288C117.469 13.8288 116.499 14.9882 116.499 16.81V23.3403H113.163V11.1315H116.428L116.476 12.7878C117.28 11.4628 118.44 10.8239 120.001 10.8239C122.533 10.8239 124 12.5038 124 15.1538V23.3403H120.664V15.9109Z" fill="#00BF49"></path>
<path d="M104.768 23.7425C101.101 23.7425 98.5221 20.9743 98.5221 17.2832C98.5221 13.5922 101.101 10.8239 104.768 10.8239C108.436 10.8239 111.015 13.5922 111.015 17.2832C111.015 20.9743 108.436 23.7425 104.768 23.7425ZM104.768 21.1399C106.638 21.1399 107.797 19.6256 107.797 17.2832C107.797 14.9409 106.638 13.4266 104.768 13.4266C102.899 13.4266 101.74 14.9409 101.74 17.2832C101.74 19.6256 102.899 21.1399 104.768 21.1399Z" fill="#00BF49"></path>
<path d="M91.0929 23.7662C87.0469 23.7662 84.7282 20.9269 84.7282 17.1886C84.7282 13.6159 86.9996 10.8239 90.738 10.8239C94.358 10.8239 97.008 13.3793 97.008 17.6618V18.2297H88.159C88.3009 20.0752 89.3656 21.1636 91.0219 21.1636C92.1812 21.1636 92.9857 20.643 93.3879 19.5783L96.7004 19.8149C95.8723 22.4649 93.8375 23.7662 91.0929 23.7662ZM88.1353 15.9583H93.5535C93.3643 14.2547 92.3705 13.261 90.8563 13.261C89.3183 13.261 88.3009 14.2784 88.1353 15.9583Z" fill="#00BF49"></path>
<path d="M81.5427 23.3403C79.0821 23.3403 78.112 22.3702 78.112 19.9095V6.49407H81.4481V19.5073C81.4481 20.3354 81.7794 20.6667 82.6075 20.6667H83.4829V23.3403H81.5427Z" fill="#00BF49"></path>
<path d="M70.0439 23.7662C65.9979 23.7662 63.6792 20.9269 63.6792 17.1886C63.6792 13.6159 65.9506 10.8239 69.689 10.8239C73.309 10.8239 75.959 13.3793 75.959 17.6618V18.2297H67.11C67.2519 20.0752 68.3167 21.1636 69.9729 21.1636C71.1322 21.1636 71.9367 20.643 72.3389 19.5783L75.6514 19.8149C74.8233 22.4649 72.7885 23.7662 70.0439 23.7662ZM67.0863 15.9583H72.5046C72.3153 14.2547 71.3215 13.261 69.8073 13.261C68.2693 13.261 67.2519 14.2784 67.0863 15.9583Z" fill="#00BF49"></path>
<path d="M58.1369 15.84C58.1369 14.7516 57.6637 13.8288 56.5044 13.8288C55.203 13.8288 54.3276 14.9882 54.3276 16.81V23.3403H50.9915V15.84C50.9915 14.7516 50.5183 13.8288 49.3589 13.8288C48.0576 13.8288 47.1822 14.9882 47.1822 16.81V23.3403H43.846V11.1315H47.1112L47.1585 12.6931C47.9156 11.4391 49.004 10.8239 50.471 10.8239C52.2218 10.8239 53.4285 11.6521 53.9727 13.0244C54.7535 11.5337 55.9129 10.8239 57.5691 10.8239C60.1008 10.8239 61.4731 12.6221 61.4731 15.1775V23.3403H58.1369V15.84Z" fill="#00BF49"></path>
<path d="M38.1045 23.3403C38.0099 22.9144 37.9152 22.5359 37.8442 22.11C37.0161 23.1037 35.6911 23.6952 34.0822 23.6952C31.5032 23.6952 29.847 22.2046 29.847 19.9805C29.847 18.0404 31.101 16.7864 33.5617 16.2895L37.8206 15.4377V14.5386C37.8206 13.6395 37.0871 13.2136 35.7621 13.2136C34.3898 13.2136 33.751 13.6868 33.5854 14.8225L30.5332 14.7752C30.7698 12.1016 32.4497 10.8476 35.7385 10.8476C39.2402 10.8476 41.0147 12.3855 41.0147 15.3904V20.785C41.0147 21.9207 41.133 22.7251 41.488 23.3403H38.1045ZM33.1121 19.7676C33.1121 20.643 33.7983 21.2345 35.0286 21.2345C36.6139 21.2345 37.8206 20.2644 37.8206 18.4663V17.5672L34.6974 18.2296C33.68 18.4426 33.1121 18.9631 33.1121 19.7676Z" fill="#00BF49"></path>
<path d="M24.4974 15.9109C24.4974 14.6333 23.9059 13.8288 22.7229 13.8288C21.3033 13.8288 20.3332 14.9882 20.3332 16.81V23.3403H16.9971V6.49407H20.3332V12.7641C21.1376 11.4628 22.2734 10.8239 23.8349 10.8239C26.3666 10.8239 27.8336 12.5038 27.8336 15.1538V23.3403H24.4974V15.9109Z" fill="#00BF49"></path>
<path d="M7.83161 23.8845C3.33612 23.8845 0 20.3828 0 14.9172C0 9.47528 3.38345 6.1155 7.87893 6.1155C11.9959 6.1155 14.6695 8.3869 14.9771 12.0779H11.6409C11.357 10.3034 10.1267 9.14404 8.04455 9.14404C5.11066 9.14404 3.50175 11.4864 3.50175 14.9172C3.50175 18.4663 5.11066 20.856 8.04455 20.856C10.2923 20.856 11.3807 19.4363 11.6409 17.8274H14.9534C14.6695 21.6841 11.9249 23.8845 7.83161 23.8845Z" fill="#00BF49"></path>
<g clip-path="url(#clip1_4608_1213)">
<path d="M146.381 20.4384C145.285 19.6082 143.905 19.4355 142.596 19.9634C142.589 19.9667 142.581 19.9692 142.574 19.9725C141.047 20.6251 140.134 22.183 140.129 24.1391C140.127 24.8231 140.65 25.3798 141.296 25.3815H141.3C141.945 25.3815 142.469 24.8289 142.47 24.1457C142.473 23.2106 142.818 22.5473 143.441 22.2747C144.009 22.05 144.568 22.1136 145.019 22.4539C145.504 22.8215 145.769 23.4403 145.745 24.1523C145.745 24.1589 145.745 24.1664 145.745 24.173C145.716 25.8342 144.338 27.2261 142.47 27.483C139.124 27.9415 137.034 24.7553 136.194 21.6205C135.868 20.407 135.723 18.982 135.723 17.0003C135.723 13.2178 136.792 10.3811 138.901 8.56789C143.31 4.7771 150.933 6.41022 151.008 6.42674C151.353 6.50439 151.713 6.4127 151.987 6.17727C152.261 5.94185 152.42 5.58829 152.42 5.21491V2.49718C155.417 3.13242 157.483 4.81097 158.561 7.4874C159.001 8.58028 159.189 9.63764 159.268 10.4026H154.287C153.641 10.4026 153.116 10.9577 153.116 11.6417C153.116 12.3256 153.641 12.8807 154.287 12.8807H160.49C161.11 12.8807 161.623 12.3686 161.659 11.7127C161.665 11.6127 161.781 9.23121 160.755 6.61756C159.793 4.16417 157.625 1.03175 152.766 0.0437811C152.1 -0.0916927 151.419 0.0925186 150.898 0.548503C150.378 1.00284 150.08 1.67277 150.08 2.38649V3.76518C147.394 3.41906 141.489 3.15555 137.433 6.63574C134.745 8.94209 133.381 12.4289 133.381 16.9987C133.381 19.2191 133.554 20.853 133.941 22.2953C134.675 25.0337 135.959 27.179 137.655 28.4999C138.915 29.4812 140.391 29.9992 141.888 29.9992C142.182 29.9992 142.477 29.9793 142.77 29.9389C145.795 29.5242 148.03 27.1228 148.086 24.2283C148.134 22.6985 147.498 21.2818 146.381 20.4375L146.381 20.4384Z" fill="#00BF49"></path>
<path d="M163.493 15.5117H152.908L149.569 10.5636C149.193 10.0069 148.462 9.87802 147.936 10.2754C147.41 10.6727 147.288 11.4467 147.664 12.0035L150.031 15.5109H147.003L143.664 10.5628C143.288 10.0061 142.557 9.87719 142.031 10.2745C141.505 10.6727 141.383 11.4459 141.759 12.0026L144.126 15.5101H138.117C137.471 15.5101 136.947 16.0652 136.947 16.7492C136.947 17.4332 137.471 17.9883 138.117 17.9883H163.494C164.14 17.9883 164.665 17.4332 164.665 16.7492C164.665 16.0652 164.139 15.5117 163.493 15.5117Z" fill="#00BF49"></path>
<path d="M156.199 7.17433C156.199 6.49613 155.68 5.9468 155.039 5.9468C154.398 5.9468 153.879 6.49613 153.879 7.17433C153.879 7.85252 154.398 8.40185 155.039 8.40185C155.68 8.40185 156.199 7.85252 156.199 7.17433Z" fill="#00BF49" fill-opacity="0.7"></path>
<path d="M131.044 15.5117H129.507C128.861 15.5117 128.336 16.0668 128.336 16.7508C128.336 17.4348 128.861 17.9899 129.507 17.9899H131.044C131.691 17.9899 132.215 17.4348 132.215 16.7508C132.215 16.0668 131.691 15.5117 131.044 15.5117Z" fill="#00BF49"></path>
</g>
</g>
<defs>
<clipPath id="clip0_4608_1213">
<rect width="165" height="30" fill="white"></rect>
</clipPath>
<clipPath id="clip1_4608_1213">
<rect width="37" height="30" fill="white" transform="translate(128)"></rect>
</clipPath>
</defs>
</svg>